<svg width="40" height="40" viewBox="0 0 40 40" fill="none" xmlns="http://www.w3.org/2000/svg">
<path d="M31.6911 25.0805C30.1463 24.8898 28.6124 24.6194 27.0954 24.2704C26.7251 24.1466 26.329 24.1205 25.9457 24.1946C25.5623 24.2688 25.2045 24.4407 24.907 24.6937C24.5204 25.0878 23.4043 26.1898 22.2444 27.3283C18.0887 25.2845 14.7279 21.9196 12.6882 17.7605C13.8189 16.6001 14.8767 15.4908 15.3071 15.104C15.5599 14.8063 15.7318 14.4484 15.8059 14.0649C15.88 13.6813 15.8539 13.2851 15.7301 12.9146C15.3809 11.3946 15.1106 9.85747 14.9204 8.30947C14.9001 8.11235 14.8398 7.92144 14.7432 7.74838C14.6467 7.57532 14.516 7.42374 14.359 7.30288C14.202 7.18201 14.0221 7.0944 13.8301 7.04537C13.6382 6.99634 13.4383 6.98693 13.2426 7.01771H7.02748C6.77093 7.04088 6.53078 7.15386 6.34931 7.33675C6.16783 7.51964 6.05667 7.76072 6.03539 8.01755C5.63418 13.6298 8.76364 19.6361 9.39828 20.7892V20.833L9.48582 21.0009C11.7577 24.9429 15.0288 28.2155 18.969 30.4884L19.29 30.6709C20.749 31.4445 26.5483 34.3637 31.9683 33.9623C32.2276 33.9443 32.4721 33.8346 32.6579 33.6527C32.8436 33.4708 32.9587 33.2287 32.9823 32.9698V26.7591C33.0131 26.5633 33.0037 26.3633 32.9546 26.1713C32.9056 25.9793 32.8181 25.7993 32.6973 25.6422C32.5765 25.4851 32.4249 25.3543 32.252 25.2578C32.079 25.1612 31.8882 25.1009 31.6911 25.0805Z" stroke="black" stroke-width="1.1" stroke-linecap="round" stroke-linejoin="round"/>
</svg>
