<svg width="40" height="40" viewBox="0 0 40 40" fill="none" xmlns="http://www.w3.org/2000/svg">
<path d="M35.7187 5.4375C35.4608 5.21473 35.147 5.06646 34.8112 5.00865C34.4753 4.95084 34.13 4.98566 33.8125 5.10938L4.98434 16.4375C4.60969 16.5866 4.29308 16.8524 4.08147 17.1956C3.86986 17.5388 3.77452 17.9411 3.8096 18.3428C3.84468 18.7445 4.00831 19.1242 4.27622 19.4255C4.54412 19.7268 4.90203 19.9338 5.29684 20.0156L13.125 21.5938V31.25C13.1202 31.622 13.2281 31.9867 13.4345 32.2963C13.6408 32.6058 13.936 32.8457 14.2812 32.9844C14.5149 33.0774 14.7641 33.1251 15.0156 33.125C15.2597 33.1253 15.5014 33.0771 15.7267 32.9832C15.952 32.8893 16.1564 32.7516 16.3281 32.5781L20.7968 28.1094L27.3906 33.9062C27.7285 34.2121 28.1692 34.3795 28.625 34.375C28.8214 34.3745 29.0165 34.3428 29.2031 34.2812C29.5103 34.1805 29.7865 34.0026 30.0054 33.7646C30.2242 33.5266 30.3783 33.2364 30.4531 32.9219L36.3281 7.26563C36.405 6.93435 36.3888 6.58825 36.2812 6.26562C36.1737 5.94298 35.979 5.65638 35.7187 5.4375ZM5.04684 18.2344C5.02825 18.0989 5.05697 17.9613 5.12813 17.8445C5.1993 17.7278 5.30856 17.6392 5.43746 17.5937L31.875 7.21875L13.6093 20.4063L5.54684 18.7969C5.41255 18.7726 5.29028 18.704 5.19962 18.602C5.10897 18.5 5.05516 18.3706 5.04684 18.2344ZM15.4375 31.6875C15.3526 31.7757 15.2431 31.8363 15.1232 31.8614C15.0034 31.8865 14.8787 31.8749 14.7656 31.8281C14.6504 31.7815 14.5517 31.7016 14.4821 31.5986C14.4125 31.4957 14.3752 31.3743 14.375 31.25V22.4531L19.8593 27.2813L15.4375 31.6875ZM35.1093 7L29.2343 32.6406C29.2109 32.747 29.1594 32.8451 29.0852 32.9248C29.011 33.0044 28.9168 33.0628 28.8125 33.0938C28.7116 33.13 28.6027 33.1375 28.4979 33.1154C28.393 33.0933 28.2964 33.0426 28.2187 32.9688L14.75 21.125L35.0156 6.48438C35.0667 6.55886 35.1014 6.6433 35.1176 6.73216C35.1338 6.82103 35.1309 6.9123 35.1093 7Z" fill="black"/>
</svg>
