<svg width="40" height="40" viewBox="0 0 40 40" fill="none" xmlns="http://www.w3.org/2000/svg">
<path d="M18.6315 3.00408C15.8412 3.03794 9.84234 3.49879 6.48706 6.59265C3.99125 9.07822 3.11984 14.2088 3.0177 18.7529C2.93295 23.2807 2.83081 30.3279 10.9854 32.6431V36.1694C10.9854 36.1694 10.9343 37.5804 11.8622 37.8698C13.0053 38.2334 13.6561 37.1479 14.7427 35.9816L16.7691 33.6784C22.3486 34.1447 28.1504 32.3504 28.6426 32.191C29.7748 31.8273 34.6234 31.7279 35.6654 23.2239C36.7345 14.4414 35.1449 8.90785 32.2753 6.40481H32.2579C31.3919 5.60323 27.9117 3.05432 20.1363 3.02592C20.1363 3.02592 19.5594 2.9877 18.6315 3.00408ZM19.8854 4.30911C20.6775 4.30365 21.187 4.30911 21.187 4.30911C27.7683 4.32658 30.8715 6.69639 31.6125 7.36692C34.029 9.44843 35.6197 16.4891 34.7081 23.8213C33.8421 30.9307 28.5245 31.2539 27.5673 31.5608C27.1598 31.6919 21.2381 32.9499 16.4964 32.6431C16.4964 32.6431 13.7746 35.489 12.6706 36.592C12.4957 36.7853 12.2914 36.8421 12.161 36.8137C11.9742 36.7679 11.9177 36.5352 11.9285 36.2164L11.9622 31.7541C5.0463 29.8321 4.21724 24.2617 4.29113 20.4732C4.37588 16.6848 4.80585 9.88993 6.91159 7.79096C9.74641 5.21474 15.4063 4.32658 17.7771 4.30911H19.8854ZM19.2486 9.2606C19.1917 9.26002 19.1352 9.27077 19.0825 9.29223C19.0297 9.31369 18.9817 9.34544 18.9412 9.38564C18.9007 9.42584 18.8685 9.4737 18.8465 9.52646C18.8245 9.57923 18.8131 9.63585 18.8129 9.69306C18.8129 9.93768 19.0107 10.131 19.2486 10.131C20.3259 10.1104 21.3967 10.3044 22.399 10.7017C23.4014 11.0991 24.3156 11.692 25.0888 12.4462C26.6676 13.9871 27.4369 16.0577 27.4662 18.7649C27.4662 19.0041 27.6585 19.2029 27.9019 19.2029V19.1854C28.0166 19.1857 28.1268 19.1404 28.2084 19.0594C28.2901 18.9784 28.3365 18.8682 28.3376 18.7529C28.3904 17.4786 28.1848 16.2069 27.7333 15.0149C27.2819 13.823 26.594 12.7358 25.7114 11.8193C23.9914 10.1299 21.8118 9.2595 19.2486 9.2595V9.2606ZM20.0005 11.5594C19.4236 11.5594 19.4236 12.4353 20.006 12.4353C20.7234 12.447 21.4315 12.6006 22.0898 12.8875C22.7481 13.1744 23.3437 13.5889 23.8426 14.1072C24.2976 14.6118 24.6473 15.203 24.8709 15.8459C25.0945 16.4887 25.1875 17.1702 25.1443 17.8498C25.1462 17.9648 25.193 18.0745 25.2744 18.1553C25.3558 18.2361 25.4655 18.2817 25.58 18.2823L25.5974 18.3052C25.7126 18.3043 25.823 18.2579 25.9045 18.176C25.986 18.094 26.0322 17.9831 26.0331 17.8673C26.0722 16.1319 25.5354 14.6762 24.4826 13.5099C23.4242 12.3435 21.9476 11.6894 20.0625 11.5594H20.0005ZM20.7144 13.9139C20.12 13.8965 20.0972 14.7898 20.6861 14.8073C22.1182 14.8815 22.8136 15.6088 22.9049 17.105C22.9069 17.2186 22.953 17.3268 23.0334 17.4066C23.1138 17.4864 23.2221 17.5314 23.3352 17.532H23.3525C23.4106 17.5295 23.4677 17.5154 23.5203 17.4905C23.5729 17.4656 23.62 17.4304 23.659 17.387C23.6979 17.3436 23.7279 17.2928 23.7471 17.2377C23.7663 17.1825 23.7744 17.124 23.7709 17.0657C23.6687 15.1152 22.6104 14.0166 20.7318 13.915H20.7144V13.9139Z" fill="black"/>
<path d="M26.3707 23.1138C25.3156 22.9835 24.2679 22.7989 23.2318 22.5605C22.9788 22.4759 22.7084 22.4581 22.4465 22.5088C22.1846 22.5594 21.9403 22.6768 21.7371 22.8496C21.473 23.1188 20.7107 23.8715 19.9185 24.6491C17.0802 23.2532 14.7847 20.9549 13.3916 18.1142C14.1639 17.3217 14.8863 16.564 15.1803 16.2998C15.353 16.0965 15.4703 15.852 15.521 15.5901C15.5716 15.3281 15.5538 15.0575 15.4692 14.8044C15.2307 13.7662 15.0461 12.7164 14.9162 11.6591C14.9023 11.5245 14.8611 11.3941 14.7952 11.2759C14.7293 11.1577 14.64 11.0541 14.5327 10.9716C14.4255 10.889 14.3026 10.8292 14.1715 10.7957C14.0404 10.7622 13.9039 10.7558 13.7702 10.7768H9.52526C9.35004 10.7926 9.18601 10.8698 9.06207 10.9947C8.93812 11.1196 8.86219 11.2843 8.84766 11.4597C8.57363 15.2929 10.7111 19.3953 11.1445 20.1828V20.2128L11.2043 20.3274C12.756 23.0198 14.9902 25.2551 17.6814 26.8074L17.9006 26.9321C18.8971 27.4604 22.8581 29.4543 26.56 29.1801C26.7371 29.1679 26.9041 29.0929 27.031 28.9687C27.1579 28.8445 27.2364 28.6791 27.2526 28.5022V24.2603C27.2736 24.1266 27.2672 23.99 27.2337 23.8588C27.2002 23.7277 27.1404 23.6047 27.0579 23.4975C26.9754 23.3902 26.8719 23.3008 26.7537 23.2349C26.6356 23.1689 26.5053 23.1277 26.3707 23.1138Z" stroke="black" stroke-linecap="round" stroke-linejoin="round"/>
</svg>
