<svg width="390" height="671" viewBox="0 0 390 671" fill="none" xmlns="http://www.w3.org/2000/svg">
<path d="M294.088 3.94514C293.956 4.00949 293.824 4.07696 293.695 4.14749C267.034 18.6889 242.741 36.4719 226.085 57.7614C224.637 59.6119 224.496 61.4606 225.34 63.7286C226.184 65.9967 228.162 68.5581 230.91 71.0489C236.146 75.7967 244.096 80.2439 251.405 82.8923L254.315 80.5841L234.376 59.9908L237.362 57.6294L257.298 78.2175L260.776 75.4561L240.843 54.8732L243.826 52.5064L263.759 73.0891L266.866 70.6266L246.939 50.0408L249.928 47.6713L269.852 68.2513L273.208 65.5912L253.278 45.0138L256.266 42.6442L276.191 63.2245L279.669 60.4628L259.748 39.8879L262.73 37.5212L282.652 58.096L286.133 55.3397L266.211 34.7648L269.194 32.3979L289.119 52.9647L292.352 50.4057L272.433 29.836L275.415 27.4695L295.331 48.0336L299.049 45.0852L279.139 24.518L282.127 22.1487L302.037 42.7155L305.512 39.9618L285.603 19.395L288.591 17.0261L308.498 37.5872L311.853 34.9269L291.95 14.3709L294.933 12.0041L314.836 32.5599L317.762 30.2385C315.819 23.3199 311.916 15.4562 307.364 10.0603C304.976 7.22911 302.41 5.10584 300.075 4.08143C298.031 3.1854 296.305 3.01984 294.482 3.76967C294.352 3.82344 294.22 3.88227 294.089 3.94497L294.088 3.94514Z" fill="black" fill-opacity="0.03"/>
<path d="M278.514 291.844C278.381 291.909 278.25 291.976 278.12 292.047C251.459 306.588 227.166 324.371 210.51 345.661C209.062 347.511 208.921 349.36 209.765 351.628C210.61 353.896 212.588 356.457 215.335 358.948C220.571 363.696 228.521 368.143 235.83 370.792L238.741 368.483L218.802 347.89L221.787 345.529L241.723 366.117L245.202 363.355L225.268 342.773L228.251 340.406L248.184 360.988L251.291 358.526L231.364 337.94L234.353 335.571L254.277 356.151L257.633 353.491L237.703 332.913L240.691 330.544L260.616 351.124L264.094 348.362L244.173 327.787L247.155 325.421L267.077 345.995L270.558 343.239L250.636 322.664L253.619 320.297L273.544 340.864L276.777 338.305L256.858 317.735L259.84 315.369L279.756 335.933L283.474 332.985L263.564 312.417L266.552 310.048L286.462 330.615L289.937 327.861L270.028 307.294L273.016 304.925L292.923 325.487L296.278 322.826L276.375 302.27L279.358 299.903L299.261 320.459L302.187 318.138C300.244 311.219 296.341 303.356 291.789 297.96C289.401 295.128 286.835 293.005 284.5 291.981C282.457 291.085 280.73 290.919 278.907 291.669C278.777 291.723 278.645 291.782 278.514 291.844L278.514 291.844Z" fill="black" fill-opacity="0.03"/>
<path d="M380.579 549.654C380.446 549.718 380.315 549.785 380.186 549.856C353.524 564.397 329.231 582.18 312.575 603.47C311.127 605.32 310.986 607.169 311.83 609.437C312.675 611.705 314.653 614.267 317.4 616.757C322.636 621.505 330.586 625.952 337.895 628.601L340.806 626.293L320.867 605.699L323.852 603.338L343.789 623.926L347.267 621.165L327.333 600.582L330.316 598.215L350.249 618.798L353.357 616.335L333.429 595.749L336.418 593.38L356.343 613.96L359.698 611.3L339.768 590.722L342.757 588.353L362.681 608.933L366.159 606.171L346.238 585.596L349.22 583.23L369.142 603.804L372.623 601.048L352.702 580.473L355.684 578.106L375.609 598.673L378.842 596.114L358.923 575.544L361.906 573.178L381.821 593.742L385.539 590.794L365.629 570.226L368.618 567.857L388.527 588.424L392.002 585.67L372.093 565.103L375.081 562.735L394.988 583.296L398.344 580.635L378.44 560.079L381.423 557.713L401.327 578.268L404.252 575.947C402.309 569.028 398.406 561.165 393.854 555.769C391.466 552.938 388.9 550.814 386.565 549.79C384.522 548.894 382.795 548.728 380.972 549.478C380.842 549.532 380.71 549.591 380.579 549.653L380.579 549.654Z" fill="black" fill-opacity="0.03"/>
<path d="M239.632 185.873L209.549 219.232C208.059 220.853 205.925 221.859 203.611 222.032C201.297 222.205 198.989 221.531 197.191 220.157C195.392 218.782 194.248 216.818 194.007 214.692C193.766 212.566 194.447 210.449 195.904 208.803L226.694 174.658" stroke="black" stroke-opacity="0.03" stroke-width="5" stroke-linecap="round" stroke-linejoin="round"/>
<path d="M295.281 195.072L277.655 210.246M261.095 147.453C256.928 143.378 251.19 140.968 245.145 140.753C239.099 140.539 233.241 142.538 228.858 146.311C224.476 150.084 221.928 155.321 221.775 160.871C221.623 166.421 223.878 171.829 228.045 175.904C230.8 178.599 234.896 182.014 239.694 185.758L265.059 203.74L290.426 221.724L306.95 207.499L284.023 177.476L261.095 147.453Z" stroke="black" stroke-opacity="0.03" stroke-width="5" stroke-linecap="round" stroke-linejoin="round"/>
<path d="M249.848 166.838C248.386 168.097 246.431 168.765 244.413 168.693C242.396 168.622 240.482 167.817 239.091 166.457C237.7 165.097 236.948 163.293 236.999 161.441C237.05 159.589 237.9 157.841 239.362 156.582C240.825 155.323 242.78 154.656 244.797 154.728C246.815 154.799 248.729 155.603 250.12 156.964C251.51 158.324 252.263 160.128 252.212 161.98C252.161 163.832 251.311 165.579 249.848 166.838Z" stroke="black" stroke-opacity="0.03" stroke-width="5" stroke-linecap="round" stroke-linejoin="round"/>
<path d="M69.7528 386.45L86.8661 427.345C87.6844 429.354 87.6295 431.554 86.7133 433.467C85.7971 435.38 84.0938 436.852 81.9739 437.561C79.8539 438.27 77.4887 438.16 75.3929 437.254C73.297 436.349 71.6399 434.721 70.782 432.726L53.2647 390.868" stroke="black" stroke-opacity="0.03" stroke-width="5" stroke-linecap="round" stroke-linejoin="round"/>
<path d="M106.143 347.039L112.236 369.242M44.33 349.502C38.4475 350.713 33.4076 354.068 30.3193 358.828C27.2309 363.588 26.347 369.363 27.8619 374.884C29.3769 380.405 33.1666 385.218 38.3974 388.265C43.6282 391.313 49.8717 392.344 55.7542 391.133C59.6431 390.333 64.8602 388.831 70.7272 386.936L100.011 375.967L129.297 364.997L123.585 344.181L83.9573 346.842L44.33 349.502Z" stroke="black" stroke-opacity="0.03" stroke-width="5" stroke-linecap="round" stroke-linejoin="round"/>
<path d="M57.1614 369.122C57.6625 370.94 57.3701 372.841 56.3486 374.409C55.3271 375.976 53.6602 377.081 51.7145 377.48C49.7689 377.879 47.7039 377.539 45.9738 376.535C44.2438 375.532 42.9904 373.947 42.4893 372.129C41.9883 370.311 42.2807 368.409 43.3022 366.842C44.3237 365.274 45.9906 364.17 47.9363 363.771C49.8819 363.372 51.9469 363.712 53.6769 364.715C55.407 365.719 56.6604 367.304 57.1614 369.122Z" stroke="black" stroke-opacity="0.03" stroke-width="5" stroke-linecap="round" stroke-linejoin="round"/>
<path d="M372.603 401.857L389.716 442.752C390.534 444.761 390.48 446.961 389.563 448.874C388.647 450.787 386.944 452.258 384.824 452.968C382.704 453.677 380.339 453.567 378.243 452.661C376.147 451.756 374.49 450.128 373.632 448.133L356.115 406.275" stroke="black" stroke-opacity="0.03" stroke-width="5" stroke-linecap="round" stroke-linejoin="round"/>
<path d="M408.993 362.446L415.086 384.649M347.18 364.909C341.298 366.12 336.258 369.475 333.169 374.235C330.081 378.995 329.197 384.77 330.712 390.291C332.227 395.812 336.017 400.625 341.248 403.672C346.478 406.72 352.722 407.751 358.604 406.54C362.493 405.739 367.71 404.238 373.577 402.343L402.861 391.374L432.147 380.404L426.435 359.588L386.807 362.249L347.18 364.909Z" stroke="black" stroke-opacity="0.03" stroke-width="5" stroke-linecap="round" stroke-linejoin="round"/>
<path d="M360.012 384.529C360.513 386.347 360.22 388.248 359.199 389.816C358.177 391.383 356.51 392.488 354.565 392.887C352.619 393.285 350.554 392.946 348.824 391.942C347.094 390.939 345.841 389.354 345.34 387.536C344.838 385.718 345.131 383.816 346.152 382.249C347.174 380.681 348.841 379.576 350.786 379.178C352.732 378.779 354.797 379.119 356.527 380.122C358.257 381.126 359.511 382.711 360.012 384.529Z" stroke="black" stroke-opacity="0.03" stroke-width="5" stroke-linecap="round" stroke-linejoin="round"/>
<path d="M40.5749 593.231L13.7732 629.088C12.4432 630.832 10.4175 632.026 8.13672 632.41C5.85594 632.793 3.50455 632.335 1.59401 631.135C-0.316532 629.935 -1.63169 628.091 -2.0654 626.002C-2.49911 623.914 -2.0163 621.752 -0.721977 619.985L26.7103 583.283" stroke="black" stroke-opacity="0.03" stroke-width="5" stroke-linecap="round" stroke-linejoin="round"/>
<path d="M96.8421 597.639L80.6326 614.419M58.3094 553.216C53.7717 549.528 47.8189 547.648 41.7604 547.99C35.702 548.333 30.0341 550.869 26.0038 555.041C21.9735 559.213 19.9108 564.679 20.2695 570.237C20.6282 575.795 23.3789 580.99 27.9165 584.678C30.9163 587.116 35.3218 590.15 40.4595 593.449L67.4519 609.079L94.4462 624.71L109.643 608.98L83.976 581.098L58.3094 553.216Z" stroke="black" stroke-opacity="0.03" stroke-width="5" stroke-linecap="round" stroke-linejoin="round"/>
<path d="M48.7404 573.511C47.3997 574.898 45.5141 575.742 43.4987 575.856C41.4832 575.97 39.5029 575.345 37.9933 574.118C36.4838 572.891 35.5687 571.163 35.4494 569.314C35.3301 567.465 36.0163 565.647 37.357 564.259C38.6978 562.872 40.5833 562.028 42.5988 561.914C44.6143 561.8 46.5946 562.426 48.1041 563.652C49.6137 564.879 50.5288 566.607 50.6481 568.456C50.7674 570.305 50.0812 572.123 48.7404 573.511Z" stroke="black" stroke-opacity="0.03" stroke-width="5" stroke-linecap="round" stroke-linejoin="round"/>
<path d="M48.9862 99.3421L66.0996 140.237C66.9178 142.246 66.8629 144.446 65.9468 146.359C65.0306 148.272 63.3273 149.743 61.2073 150.452C59.0873 151.162 56.7222 151.051 54.6263 150.146C52.5304 149.24 50.8733 147.613 50.0154 145.617L32.4981 103.76" stroke="black" stroke-opacity="0.03" stroke-width="5" stroke-linecap="round" stroke-linejoin="round"/>
<path d="M85.3763 59.9305L91.4692 82.1337M23.5635 62.3938C17.6809 63.6048 12.6411 66.9594 9.55274 71.7194C6.46437 76.4795 5.58043 82.2551 7.09537 87.7757C8.61031 93.2963 12.4 98.1097 17.6309 101.157C22.8617 104.204 29.1051 105.236 34.9877 104.025C38.8766 103.224 44.0937 101.722 49.9607 99.8279L79.2442 88.8583L108.53 77.8882L102.818 57.0727L63.1907 59.7332L23.5635 62.3938Z" stroke="black" stroke-opacity="0.03" stroke-width="5" stroke-linecap="round" stroke-linejoin="round"/>
<path d="M36.3949 82.0133C36.8959 83.8312 36.6035 85.7331 35.582 87.3005C34.5606 88.868 32.8936 89.9726 30.948 90.3714C29.0024 90.7702 26.9374 90.4304 25.2073 89.4269C23.4773 88.4235 22.2239 86.8384 21.7228 85.0205C21.2218 83.2026 21.5142 81.3007 22.5357 79.7332C23.5572 78.1658 25.2241 77.0612 27.1697 76.6624C29.1154 76.2636 31.1804 76.6033 32.9104 77.6068C34.6405 78.6103 35.8939 80.1954 36.3949 82.0133Z" stroke="black" stroke-opacity="0.03" stroke-width="5" stroke-linecap="round" stroke-linejoin="round"/>
<path d="M69.6704 286.144C75.3642 286.736 80.6066 282.942 81.3573 277.684C82.108 272.427 78.0869 267.668 72.3931 267.075C66.6992 266.483 61.4568 270.277 60.7061 275.535C59.9554 280.792 63.9765 285.551 69.6704 286.144ZM72.0041 269.799C76.0694 270.222 78.9435 273.621 78.4072 277.377C77.8708 281.134 74.1247 283.843 70.0593 283.42C65.994 282.996 63.1199 279.598 63.6563 275.842C64.1927 272.085 67.9388 269.376 72.0041 269.799Z" fill="black" fill-opacity="0.03"/>
<path d="M51.1667 270.33C50.6029 274.279 50.9479 279.342 51.9595 282.293C53.8816 289.363 59.0742 293.39 67.3982 294.256C78.2865 295.389 88.3152 288.13 89.7507 278.075C91.147 268.295 83.8538 260.334 72.4113 259.143C59.4036 257.789 56.0804 250.894 55.9505 250.61C55.9054 250.511 55.8486 250.417 55.7811 250.33L16.8856 201.039C16.712 200.818 16.4694 200.653 16.1894 200.563C15.9095 200.473 15.6051 200.463 15.3157 200.535C15.0264 200.607 14.7656 200.757 14.5672 200.965C14.3687 201.174 14.2419 201.431 14.203 201.704C10.4525 227.974 27.4553 243.732 39.8697 255.234C46.5087 261.386 51.7504 266.241 51.1667 270.33ZM16.7708 205.593L53.2777 251.856C53.9029 253.093 58.169 260.423 72.0227 261.865C81.7586 262.879 87.974 269.567 86.8031 277.768C85.5813 286.326 77.051 292.499 67.7868 291.534C60.6978 290.796 56.4635 287.538 54.8218 281.5C54.0485 279.248 53.538 274.673 54.1143 270.636C54.8865 265.228 49.1987 259.956 41.9997 253.284C30.5947 242.716 15.1788 228.435 16.7708 205.593ZM4.19291 269.722C3.44288 274.975 7.46047 279.73 13.1493 280.322C18.8382 280.914 24.076 277.123 24.826 271.869C25.5761 266.616 21.5585 261.861 15.8696 261.269C10.1808 260.677 4.94293 264.468 4.19291 269.722ZM21.8784 271.563C21.3425 275.316 17.5997 278.023 13.5379 277.6C9.47616 277.178 6.6046 273.782 7.1405 270.029C7.6764 266.275 11.4192 263.568 15.481 263.991C19.5428 264.414 22.4143 267.809 21.8784 271.563Z" fill="black" fill-opacity="0.03"/>
<path d="M59.9724 247.756C59.8052 247.859 59.6616 247.991 59.5501 248.146C59.4386 248.3 59.3615 248.472 59.3233 248.653C59.2851 248.834 59.2866 249.019 59.3278 249.198C59.369 249.377 59.4489 249.546 59.563 249.695C59.677 249.843 59.8227 249.969 59.9915 250.063C60.1603 250.158 60.3487 250.22 60.5455 250.246C60.7422 250.272 60.9434 250.261 61.137 250.214C61.3305 250.167 61.5125 250.084 61.6722 249.972C73.3429 242.292 87.1254 230.757 90.1541 209.543C90.1933 209.27 90.1426 208.994 90.0086 208.751C89.8747 208.508 89.6637 208.309 89.403 208.18C89.1424 208.051 88.8442 207.998 88.5471 208.028C88.2501 208.057 87.968 208.169 87.7374 208.347L51.0251 236.695C50.7202 236.931 50.527 237.267 50.4882 237.629C50.4494 237.991 50.5681 238.35 50.8182 238.627C51.0683 238.903 51.4293 239.075 51.8217 239.104C52.2142 239.133 52.606 239.017 52.911 238.781L86.5775 212.784C82.7454 230.699 70.4682 240.846 59.9724 247.756ZM29.9829 254.095C30.1723 254.05 30.3508 253.97 30.5081 253.861C30.6654 253.753 30.7985 253.617 30.8999 253.462C31.0012 253.306 31.0687 253.135 31.0986 252.957C31.1285 252.779 31.1201 252.598 31.074 252.424C31.0279 252.251 30.9449 252.088 30.8298 251.945C30.7148 251.802 30.5698 251.682 30.4033 251.591C30.2368 251.501 30.0519 251.442 29.8593 251.418C29.6667 251.394 29.4701 251.405 29.2807 251.451C28.5663 251.63 27.8563 251.825 27.1511 252.035C24.5177 252.797 21.238 253.749 17.4917 253.359C6.04957 252.168 -3.26956 258.399 -4.66581 268.179C-6.1013 278.233 1.59073 287.337 12.4788 288.471C20.8025 289.337 26.9757 286.494 30.7819 280.094C32.6949 277.296 33.8389 270.855 34.3511 267.268C34.4556 266.535 36.9247 265.207 38.402 264.413C39.7657 263.682 41.1754 262.923 42.1909 262.095C42.489 261.852 42.6723 261.512 42.7006 261.149C42.7288 260.786 42.5997 260.431 42.3415 260.161C42.0834 259.89 41.7174 259.728 41.3241 259.709C40.9307 259.69 40.5423 259.815 40.2443 260.058C39.4516 260.708 38.1752 261.393 36.9378 262.056C34.2451 263.505 31.7021 264.87 31.4036 266.961C30.5984 272.601 29.429 276.979 28.2292 278.74C24.983 284.192 19.9561 286.487 12.8674 285.749C8.4136 285.281 4.37656 283.2 1.64209 279.964C-1.09237 276.727 -2.3009 272.599 -1.71831 268.485C-0.547064 260.282 7.36756 255.067 17.1031 256.081C21.4772 256.536 25.2439 255.442 27.9963 254.643C28.708 254.435 29.3723 254.244 29.9829 254.095Z" fill="black" fill-opacity="0.03"/>
<path d="M45.4884 252.665C46.8017 252.802 48.0066 251.929 48.1797 250.717C48.3529 249.504 47.4286 248.41 46.1154 248.274C44.8022 248.137 43.5972 249.009 43.4241 250.222C43.2509 251.434 44.1752 252.528 45.4884 252.665Z" fill="black" fill-opacity="0.03"/>
<path d="M197.104 636.063C201.739 639.119 208.294 638.107 211.717 633.808C215.14 629.509 214.154 623.525 209.518 620.469C204.883 617.413 198.328 618.425 194.905 622.724C191.482 627.023 192.469 633.007 197.104 636.063ZM207.745 622.697C211.054 624.879 211.761 629.153 209.316 632.225C206.87 635.297 202.187 636.017 198.878 633.835C195.568 631.653 194.861 627.379 197.307 624.308C199.752 621.236 204.435 620.515 207.745 622.697Z" fill="black" fill-opacity="0.03"/>
<path d="M189.316 614.122C186.744 617.353 184.375 621.969 183.7 625.02C181.644 632.107 184.035 637.968 190.813 642.436C199.679 648.282 212.221 646.346 218.768 638.123C225.136 630.124 222.992 619.861 213.675 613.719C203.083 606.736 203.829 599.179 203.866 598.87C203.879 598.763 203.879 598.655 203.867 598.548L196.039 537.791C196.004 537.519 195.881 537.265 195.685 537.061C195.489 536.857 195.229 536.713 194.94 536.648C194.651 536.582 194.345 536.598 194.063 536.694C193.78 536.789 193.534 536.96 193.357 537.183C176.253 558.668 182.725 580.125 187.453 595.789C189.981 604.167 191.978 610.779 189.316 614.122ZM193.539 541.754L200.886 598.78C200.778 600.147 200.622 608.508 211.903 615.945C219.83 621.171 221.708 629.833 216.368 636.54C210.796 643.539 200.129 645.183 192.585 640.21C186.813 636.404 184.85 631.648 186.605 625.595C187.12 623.266 189.088 619.006 191.716 615.705C195.237 611.281 193.072 604.103 190.332 595.019C185.989 580.627 180.117 561.178 193.539 541.754ZM148.81 592.679C145.39 596.976 146.375 602.955 151.008 606.009C155.64 609.063 162.19 608.052 165.611 603.756C169.031 599.459 168.046 593.48 163.413 590.426C158.781 587.372 152.231 588.383 148.81 592.679ZM163.211 602.173C160.767 605.243 156.087 605.963 152.78 603.783C149.472 601.602 148.766 597.331 151.21 594.261C153.654 591.192 158.334 590.471 161.641 592.652C164.949 594.832 165.655 599.103 163.211 602.173Z" fill="black" fill-opacity="0.03"/>
<path d="M208.816 598.174C208.616 598.19 208.422 598.243 208.244 598.329C208.065 598.416 207.907 598.533 207.779 598.676C207.65 598.818 207.554 598.982 207.495 599.158C207.437 599.334 207.418 599.519 207.438 599.701C207.459 599.882 207.52 600.058 207.616 600.216C207.713 600.375 207.844 600.514 208.002 600.624C208.159 600.734 208.34 600.814 208.533 600.859C208.726 600.903 208.927 600.912 209.126 600.883C223.316 599.309 241.374 595.277 255.187 577.926C255.365 577.703 255.466 577.437 255.478 577.163C255.489 576.89 255.411 576.62 255.252 576.39C255.094 576.161 254.863 575.981 254.589 575.875C254.315 575.769 254.011 575.742 253.717 575.796L206.869 584.443C206.48 584.515 206.135 584.725 205.91 585.027C205.685 585.329 205.599 585.698 205.671 586.053C205.743 586.408 205.966 586.72 206.292 586.92C206.618 587.12 207.019 587.192 207.409 587.12L250.37 579.191C237.598 593.276 221.58 596.755 208.816 598.174ZM179.41 590.413C179.599 590.457 179.796 590.467 179.99 590.441C180.184 590.415 180.371 590.355 180.541 590.263C180.711 590.171 180.86 590.05 180.98 589.907C181.1 589.763 181.188 589.6 181.239 589.426C181.291 589.253 181.304 589.072 181.28 588.895C181.255 588.718 181.192 588.547 181.095 588.393C180.998 588.24 180.869 588.105 180.714 587.998C180.559 587.891 180.382 587.814 180.194 587.77C179.478 587.61 178.758 587.466 178.035 587.337C175.344 586.837 171.993 586.215 168.942 584.204C159.625 578.062 148.241 579.406 141.874 587.404C135.327 595.628 137.215 607.076 146.08 612.921C152.858 617.39 159.722 617.631 166.402 613.685C169.54 612.07 173.929 606.902 176.265 603.968C176.741 603.369 179.587 603.297 181.29 603.255C182.86 603.218 184.486 603.176 185.805 602.898C186.192 602.817 186.53 602.598 186.746 602.291C186.962 601.984 187.037 601.613 186.955 601.26C186.873 600.907 186.64 600.601 186.309 600.409C185.977 600.217 185.573 600.155 185.186 600.236C184.155 600.456 182.685 600.492 181.259 600.526C178.155 600.605 175.226 600.676 173.865 602.386C170.193 606.998 166.869 610.336 164.897 611.355C159.203 614.716 153.625 614.501 147.853 610.695C144.228 608.3 141.816 604.669 141.145 600.6C140.474 596.53 141.599 592.353 144.274 588.987C149.615 582.277 159.242 581.204 167.17 586.43C170.732 588.779 174.582 589.491 177.395 590.012C178.123 590.145 178.801 590.273 179.41 590.413Z" fill="black" fill-opacity="0.03"/>
<path d="M193.656 596.023C194.726 596.728 196.232 596.495 197.022 595.504C197.811 594.512 197.584 593.137 196.515 592.432C195.446 591.727 193.939 591.96 193.15 592.951C192.361 593.943 192.587 595.318 193.656 596.023Z" fill="black" fill-opacity="0.03"/>
<path d="M273.168 487.526C278.069 484.895 279.607 479.026 276.597 474.442C273.587 469.858 267.152 468.268 262.251 470.898C257.35 473.529 255.812 479.398 258.822 483.982C261.832 488.567 268.267 490.156 273.168 487.526ZM263.81 473.274C267.31 471.396 271.907 472.529 274.057 475.805C276.208 479.081 275.107 483.272 271.608 485.15C268.109 487.028 263.512 485.895 261.361 482.619C259.211 479.344 260.311 475.152 263.81 473.274Z" fill="black" fill-opacity="0.03"/>
<path d="M248.153 485.393C250.413 488.836 254.155 492.669 256.974 494.461C263.335 499.029 270.192 499.398 277.356 495.553C286.726 490.524 289.668 479.298 283.913 470.532C278.315 462.006 267.105 459.656 257.257 464.941C246.063 470.95 238.716 467.284 238.419 467.129C238.315 467.075 238.206 467.031 238.093 466.999L173.625 449.04C173.337 448.96 173.032 448.96 172.749 449.041C172.467 449.122 172.22 449.28 172.041 449.495C171.862 449.71 171.758 449.971 171.745 450.244C171.731 450.518 171.807 450.792 171.964 451.03C187 473.932 211.216 477.186 228.894 479.558C238.349 480.828 245.813 481.829 248.153 485.393ZM176.654 452.719L237.163 469.575C238.504 470.216 246.893 473.714 258.815 467.314C267.194 462.817 276.682 464.743 281.376 471.893C286.275 479.354 283.771 488.901 275.798 493.18C269.697 496.455 264.123 496.173 258.69 492.273C256.537 490.906 253 487.551 250.689 484.032C247.594 479.316 239.493 478.228 229.24 476.85C212.998 474.669 191.047 471.724 176.654 452.719ZM210.66 510.491C213.667 515.071 220.096 516.659 224.992 514.031C229.888 511.403 231.424 505.54 228.417 500.96C225.41 496.38 218.982 494.792 214.086 497.42C209.19 500.048 207.653 505.911 210.66 510.491ZM225.881 502.322C228.029 505.594 226.929 509.782 223.434 511.658C219.938 513.534 215.346 512.402 213.197 509.13C211.049 505.857 212.148 501.669 215.644 499.793C219.139 497.917 223.732 499.049 225.881 502.322Z" fill="black" fill-opacity="0.03"/>
<path d="M239.633 462.801C239.572 462.974 239.549 463.157 239.567 463.341C239.584 463.524 239.642 463.703 239.736 463.867C239.829 464.032 239.958 464.178 240.113 464.298C240.268 464.417 240.446 464.508 240.638 464.564C240.83 464.62 241.031 464.64 241.229 464.623C241.427 464.606 241.619 464.553 241.792 464.467C241.965 464.38 242.116 464.262 242.236 464.119C242.357 463.976 242.444 463.811 242.493 463.635C246.443 451.181 249.419 434.517 237.277 416.022C237.12 415.784 236.891 415.592 236.619 415.472C236.347 415.352 236.044 415.309 235.75 415.348C235.456 415.388 235.184 415.508 234.97 415.694C234.756 415.879 234.609 416.121 234.55 416.388L224.994 458.891C224.915 459.244 224.992 459.616 225.21 459.925C225.427 460.233 225.767 460.454 226.154 460.537C226.541 460.621 226.943 460.56 227.273 460.37C227.602 460.179 227.832 459.873 227.911 459.52L236.674 420.543C245.923 436.856 243.184 451.599 239.633 462.801ZM220.306 484.166C220.424 484.027 220.51 483.867 220.56 483.695C220.61 483.523 220.622 483.342 220.595 483.164C220.569 482.986 220.505 482.813 220.407 482.655C220.308 482.497 220.178 482.358 220.022 482.246C219.867 482.133 219.69 482.049 219.501 481.998C219.312 481.947 219.116 481.93 218.922 481.949C218.729 481.968 218.543 482.022 218.374 482.108C218.205 482.193 218.058 482.309 217.94 482.449C217.499 482.981 217.072 483.522 216.66 484.073C215.103 486.112 213.166 488.653 209.942 490.384C200.095 495.669 197.008 505.692 202.606 514.218C208.361 522.984 220.67 526.024 230.04 520.995C237.203 517.15 240.128 511.53 238.748 504.376C238.341 501.113 234.831 495.375 232.778 492.247C232.359 491.609 233.397 489.209 234.02 487.775C234.595 486.452 235.188 485.081 235.422 483.871C235.491 483.515 235.402 483.145 235.176 482.842C234.95 482.538 234.604 482.326 234.216 482.252C233.827 482.179 233.427 482.249 233.103 482.448C232.779 482.647 232.559 482.958 232.49 483.313C232.309 484.261 231.771 485.5 231.249 486.701C230.117 489.318 229.045 491.786 230.241 493.609C233.469 498.525 235.546 502.639 235.805 504.691C236.978 510.788 234.582 515.347 228.482 518.622C224.646 520.676 220.034 521.222 215.659 520.141C211.283 519.06 207.501 516.44 205.143 512.857C200.447 505.704 203.122 497.254 211.5 492.757C215.264 490.736 217.488 487.816 219.113 485.683C219.532 485.13 219.926 484.617 220.306 484.166Z" fill="black" fill-opacity="0.03"/>
<path d="M231.522 474.521C232.652 473.914 233.006 472.565 232.311 471.508C231.617 470.45 230.138 470.085 229.008 470.692C227.877 471.298 227.524 472.647 228.218 473.705C228.912 474.762 230.391 475.127 231.522 474.521Z" fill="black" fill-opacity="0.03"/>
</svg>
